<?xml version="1.0" standalone="no"?>
<svg xmlns:xlink="http://www.w3.org/1999/xlink" id="wave" style="transform:rotate(0deg); transition: 0.3s" viewBox="0 0 1440 350" version="1.1" xmlns="http://www.w3.org/2000/svg"><defs><linearGradient id="sw-gradient-0" x1="0" x2="0" y1="1" y2="0"><stop stop-color="rgba(241, 119, 145, 1)" offset="0%"/><stop stop-color="rgba(185, 24, 132, 1)" offset="100%"/></linearGradient></defs><path style="transform:translate(0, 0px); opacity:1" fill="url(#sw-gradient-0)" d="M0,140L34.3,145.8C68.6,152,137,163,206,151.7C274.3,140,343,105,411,81.7C480,58,549,47,617,64.2C685.7,82,754,128,823,145.8C891.4,163,960,152,1029,122.5C1097.1,93,1166,47,1234,58.3C1302.9,70,1371,140,1440,145.8C1508.6,152,1577,93,1646,75.8C1714.3,58,1783,82,1851,105C1920,128,1989,152,2057,151.7C2125.7,152,2194,128,2263,99.2C2331.4,70,2400,35,2469,46.7C2537.1,58,2606,117,2674,122.5C2742.9,128,2811,82,2880,81.7C2948.6,82,3017,128,3086,157.5C3154.3,187,3223,198,3291,175C3360,152,3429,93,3497,75.8C3565.7,58,3634,82,3703,81.7C3771.4,82,3840,58,3909,87.5C3977.1,117,4046,198,4114,210C4182.9,222,4251,163,4320,134.2C4388.6,105,4457,105,4526,134.2C4594.3,163,4663,222,4731,233.3C4800,245,4869,210,4903,192.5L4937.1,175L4937.1,350L4902.9,350C4868.6,350,4800,350,4731,350C4662.9,350,4594,350,4526,350C4457.1,350,4389,350,4320,350C4251.4,350,4183,350,4114,350C4045.7,350,3977,350,3909,350C3840,350,3771,350,3703,350C3634.3,350,3566,350,3497,350C3428.6,350,3360,350,3291,350C3222.9,350,3154,350,3086,350C3017.1,350,2949,350,2880,350C2811.4,350,2743,350,2674,350C2605.7,350,2537,350,2469,350C2400,350,2331,350,2263,350C2194.3,350,2126,350,2057,350C1988.6,350,1920,350,1851,350C1782.9,350,1714,350,1646,350C1577.1,350,1509,350,1440,350C1371.4,350,1303,350,1234,350C1165.7,350,1097,350,1029,350C960,350,891,350,823,350C754.3,350,686,350,617,350C548.6,350,480,350,411,350C342.9,350,274,350,206,350C137.1,350,69,350,34,350L0,350Z"/></svg>